<svg xmlns="http://www.w3.org/2000/svg" width="15.255" height="16" viewBox="0 0 15.255 16">
  <g id="Group_3178" data-name="Group 3178" transform="translate(0 0)">
    <g id="Group_3168" data-name="Group 3168" transform="translate(0 0)">
      <g id="Group_3169" data-name="Group 3169">
        <path id="Path_5633" data-name="Path 5633" d="M7.617,16Q4.64,16,1.663,16a1.649,1.649,0,0,1-1.1-.342,1.468,1.468,0,0,1-.556-1.1c0-.072,0-.143,0-.215Q0,8.564,0,2.781A1.7,1.7,0,0,1,.147,2a1.462,1.462,0,0,1,1.321-.86c.47-.019.942-.011,1.412,0,.147,0,.177-.046.173-.18-.01-.274,0-.548-.005-.822,0-.1.027-.138.13-.134q.25.01.5,0c.1,0,.134.035.132.134,0,.268.009.537-.005.8-.008.157.037.2.2.2q3.414-.009,6.829,0c.161,0,.322-.005.482,0,.1,0,.136-.029.133-.131-.006-.286,0-.572,0-.858,0-.107.027-.152.141-.146.167.008.334.006.5,0,.093,0,.125.03.122.124,0,.268.012.537-.006.8-.012.181.053.213.218.209.423-.012.846-.006,1.269,0a1.494,1.494,0,0,1,1.563,1.546q.008,5.9,0,11.8A1.492,1.492,0,0,1,13.641,16c-1.484,0-2.967,0-4.451,0H7.617m.01-10.287q-3.334,0-6.668,0c-.167,0-.2.046-.2.205q.007,4.246,0,8.492a.766.766,0,0,0,.861.857H13.634a.766.766,0,0,0,.86-.858q0-4.246,0-8.492c0-.161-.039-.2-.2-.2q-3.334.009-6.668,0m0-.76q3.344,0,6.687,0c.132,0,.185-.022.184-.173-.009-.691,0-1.383,0-2.074a.757.757,0,0,0-.8-.812c-.447-.006-.894,0-1.341,0-.118,0-.152.036-.149.153.008.3,0,.6,0,.894,0,.092-.027.127-.121.123-.167-.006-.334-.007-.5,0-.112.006-.143-.037-.141-.144.005-.286,0-.572,0-.858,0-.116-.021-.168-.155-.168q-3.665.005-7.331,0c-.114,0-.157.031-.155.151.007.292,0,.584,0,.876,0,.108-.031.149-.142.143a4.678,4.678,0,0,0-.482,0c-.112.006-.142-.035-.14-.142.006-.292,0-.584,0-.876,0-.118-.032-.153-.149-.152-.441.006-.882,0-1.323,0a.761.761,0,0,0-.818.831q0,.992,0,1.985c0,.272-.038.241.233.241H7.627" transform="translate(0 0)" fill="#727272"/>
      </g>
    </g>
  </g>
</svg>
