<svg xmlns="http://www.w3.org/2000/svg" xmlns:xlink="http://www.w3.org/1999/xlink" width="19" height="19" viewBox="0 0 19 19">
  <defs>
    <clipPath id="clip-path">
      <rect id="Rectangle_5252" data-name="Rectangle 5252" width="19" height="19" transform="translate(23 346)" fill="none" stroke="#727272" stroke-width="0.7"/>
    </clipPath>
  </defs>
  <g id="Mask_Group_81" data-name="Mask Group 81" transform="translate(-23 -346)" clip-path="url(#clip-path)">
    <g id="Group_3449" data-name="Group 3449" transform="translate(-2235 -419)">
      <g id="Group_3448" data-name="Group 3448" transform="translate(2260 767)">
        <path id="Path_6459" data-name="Path 6459" d="M0,13.4V4.857c0-.13.02-.41.02-.43A1.571,1.571,0,0,1,1.639,3.118H3.688V1.609A1.562,1.562,0,0,1,5.307,0h5.387a1.562,1.562,0,0,1,1.619,1.609V3.118c.73,0,1.429-.01,2.129,0a1.524,1.524,0,0,1,1.419.929c.06.13.09.27.14.41V13.4s-.02.01-.02.02a1.571,1.571,0,0,1-1.689,1.319H1.589A1.558,1.558,0,0,1,.03,13.472.212.212,0,0,0,0,13.4ZM15.36,7.775c-.06.02-.11.03-.15.04-2.339.71-4.687,1.419-7.026,2.119a.63.63,0,0,1-.36,0Q4.662,8.989,1.519,8.025c-.29-.09-.58-.17-.889-.27v5.307A.947.947,0,0,0,1.669,14.1H14.351a.941.941,0,0,0,1.029-1.029V7.755ZM.62,7.106a1,1,0,0,0,.11.04c2.389.72,4.787,1.449,7.176,2.169a.406.406,0,0,0,.19,0L15.23,7.156c.1-.03.14-.07.14-.18V4.747a.949.949,0,0,0-1-1h-4.9a.349.349,0,0,1-.33-.16.313.313,0,0,1,.31-.46h2.229V2.009H4.317V3.128H6.606a.3.3,0,0,1,.29.31.307.307,0,0,1-.29.31H1.589a.934.934,0,0,0-.979.979V7.106ZM11.653,1.369a.2.2,0,0,0-.02-.09.93.93,0,0,0-.909-.65H5.247a.9.9,0,0,0-.9.74Z" transform="translate(0)" fill="#696969" stroke="#727272" stroke-width="0.4"/>
        <path id="Path_6460" data-name="Path 6460" d="M8,7.44H6.58c-.29,0-.39-.11-.39-.4V5.7c0-.27.11-.38.38-.38H9.44c.27,0,.38.11.38.38V7.06c0,.27-.11.38-.39.38H8.01ZM6.82,6.8H9.18V5.94H6.82V6.8Z" transform="translate(-0.005 -0.004)" fill="#696969" stroke="#727272" stroke-width="0.4"/>
        <path id="Path_6461" data-name="Path 6461" d="M8,3.13a.318.318,0,0,1,.32.3.328.328,0,0,1-.3.33.31.31,0,1,1-.01-.62Z" transform="translate(-0.005 -0.002)" fill="#696969" stroke="#727272" stroke-width="0.4"/>
      </g>
    </g>
  </g>
</svg>
