<svg xmlns="http://www.w3.org/2000/svg" xmlns:xlink="http://www.w3.org/1999/xlink" width="19" height="19" viewBox="0 0 19 19">
  <defs>
    <clipPath id="clip-path">
      <rect id="Rectangle_5249" data-name="Rectangle 5249" width="19" height="19" transform="translate(22 393)" fill="none" stroke="#727272" stroke-width="0.7"/>
    </clipPath>
  </defs>
  <g id="Mask_Group_82" data-name="Mask Group 82" transform="translate(-22 -393)" clip-path="url(#clip-path)">
    <path id="Path_1" d="M2.38.1H5.3a1.386,1.386,0,0,1,1.314.952l1.33,3.99a1.4,1.4,0,0,1-.686,1.683l-.005,0-1.568.78a9.273,9.273,0,0,0,4.008,4.007l.78-1.568,0-.005a1.4,1.4,0,0,1,1.683-.686l3.99,1.33A1.386,1.386,0,0,1,17.1,11.9v2.91a2.283,2.283,0,0,1-2.28,2.28h-.908a13.716,13.716,0,0,1-9.766-4.049A13.734,13.734,0,0,1,.1,3.27V2.38A2.283,2.283,0,0,1,2.38.1ZM6.8,5.834A.4.4,0,0,0,7,5.358l-1.33-3.99A.392.392,0,0,0,5.3,1.1H2.38A1.281,1.281,0,0,0,1.1,2.38v.89A12.83,12.83,0,0,0,13.912,16.09h.908a1.281,1.281,0,0,0,1.28-1.28V11.9a.392.392,0,0,0-.268-.366l-3.99-1.33a.392.392,0,0,0-.124-.02.4.4,0,0,0-.352.212l-1,2.007a.5.5,0,0,1-.653.233,10.274,10.274,0,0,1-5.15-5.151A.5.5,0,0,1,4.8,6.832Z" transform="translate(22.9 393.9)" fill="#696969"/>
  </g>
</svg>
