<svg id="Group_4022" data-name="Group 4022" xmlns="http://www.w3.org/2000/svg" xmlns:xlink="http://www.w3.org/1999/xlink" width="45.925" height="50" viewBox="0 0 45.925 50">
  <defs>
    <clipPath id="clip-path">
      <rect id="Rectangle_5262" data-name="Rectangle 5262" width="45.925" height="50" fill="#f79421"/>
    </clipPath>
  </defs>
  <g id="Group_4021" data-name="Group 4021" clip-path="url(#clip-path)">
    <path id="Path_6462" data-name="Path 6462" d="M21.3,0a2.6,2.6,0,0,1,1.125.737,19.036,19.036,0,0,0,8.168,5.825,25.14,25.14,0,0,0,9.167,1.653,1.955,1.955,0,0,1,2.058,2.1c0,.358,0,.717,0,1.075-.015.83-.014,1.662-.058,2.49A1.936,1.936,0,0,1,39.7,15.829a1.962,1.962,0,0,1-1.837-2.119c.007-.407,0-.816.041-1.22.03-.336-.086-.446-.424-.467a27.72,27.72,0,0,1-8.172-1.758,24,24,0,0,1-8.067-5.023c-.251-.238-.376-.274-.653-.014A25.122,25.122,0,0,1,7.6,11.627a24.409,24.409,0,0,1-3.292.4c-.272.013-.4.076-.4.395a55.857,55.857,0,0,0,2.839,17.7A26.511,26.511,0,0,0,20.555,45.764a.726.726,0,0,0,.72,0,33.6,33.6,0,0,0,3.961-2.306.756.756,0,0,0,.37-.717c-.011-3.827-.007-7.654-.007-11.481,0-1.621.725-2.338,2.362-2.338.521,0,1.043-.018,1.563.007.305.014.384-.086.381-.384-.014-1.482-.01-2.964-.005-4.446a5.861,5.861,0,0,1,11.722-.019c.008,1.482.011,2.964-.006,4.446,0,.326.1.414.411.4.634-.022,1.27-.015,1.905,0A1.934,1.934,0,0,1,45.917,30.9q.015,6.327,0,12.653a1.941,1.941,0,0,1-2.081,1.979q-7.181.006-14.363,0a1.339,1.339,0,0,0-.887.3,32.583,32.583,0,0,1-6.662,3.941,2.349,2.349,0,0,1-2.06-.016A29.942,29.942,0,0,1,6.134,37.93a39.205,39.205,0,0,1-4.856-12.9A72.912,72.912,0,0,1,0,10.221,1.944,1.944,0,0,1,2.057,8.214a24.856,24.856,0,0,0,9.89-1.945A18.71,18.71,0,0,0,19.393.738,2.574,2.574,0,0,1,20.517,0ZM35.812,32.833c-1.953,0-3.907.006-5.86-.006-.311,0-.457.035-.455.408q.025,4,0,8.008c0,.344.128.39.423.39q5.835-.012,11.671,0c.346,0,.431-.1.43-.435-.014-2.637-.018-5.274,0-7.911,0-.413-.144-.468-.5-.465-1.9.015-3.809.007-5.713.007m-2.007-6.582c0,.765.013,1.53-.006,2.294-.007.294.069.392.378.387q1.586-.029,3.173,0c.318.006.373-.111.37-.394-.012-1.481,0-2.961-.009-4.442a1.952,1.952,0,0,0-3.9.007c-.008.716,0,1.432,0,2.148" transform="translate(0)" fill="#f79421"/>
  </g>
</svg>
