<svg xmlns="http://www.w3.org/2000/svg" width="11.822" height="16" viewBox="0 0 11.822 16">
  <g id="Group_3175" data-name="Group 3175" transform="translate(0 -1.082)">
    <g id="Group_3176" data-name="Group 3176" transform="translate(0 1.082)">
      <g id="Group_3177" data-name="Group 3177">
        <path id="Path_5639" data-name="Path 5639" d="M6.224,0c.159.02.32.035.478.061a5.8,5.8,0,0,1,4.751,3.825A5.4,5.4,0,0,1,11.531,7.6a7.9,7.9,0,0,1-.938,1.931q-1.968,2.995-3.947,5.983a1.116,1.116,0,0,1-.377.388.738.738,0,0,1-.921-.166,2.175,2.175,0,0,1-.179-.236Q3.2,12.52,1.229,9.535A7.394,7.394,0,0,1,.077,6.725,5.377,5.377,0,0,1,.283,4.12a5.8,5.8,0,0,1,1.686-2.6A5.816,5.816,0,0,1,5.09.063c.17-.024.34-.042.51-.063Zm4.9,5.829A4.934,4.934,0,0,0,10.228,3,5.106,5.106,0,0,0,5.182.756a4.85,4.85,0,0,0-2.3.915A5.141,5.141,0,0,0,.952,4.305,4.707,4.707,0,0,0,.74,6.447,6.508,6.508,0,0,0,1.794,9.126q1.988,3.03,3.991,6.049c.118.179.133.178.251,0l.026-.039Q8.032,12.155,10,9.168a7,7,0,0,0,.77-1.494,5.437,5.437,0,0,0,.355-1.845" transform="translate(0)" fill="#727272"/>
        <path id="Path_5640" data-name="Path 5640" d="M5.754,8.928A3.146,3.146,0,1,1,8.861,5.775,3.128,3.128,0,0,1,5.754,8.928m-.014-.7a2.449,2.449,0,1,0-2.415-2.46A2.443,2.443,0,0,0,5.74,8.232" transform="translate(0.162 0.136)" fill="#727272"/>
      </g>
    </g>
  </g>
</svg>
