<svg xmlns="http://www.w3.org/2000/svg" xmlns:xlink="http://www.w3.org/1999/xlink" width="19" height="19" viewBox="0 0 19 19">
  <defs>
    <clipPath id="clip-path">
      <rect id="Rectangle_5248" data-name="Rectangle 5248" width="19" height="19" transform="translate(23 200)" fill="none" stroke="#727272" stroke-width="0.7"/>
    </clipPath>
  </defs>
  <g id="Mask_Group_78" data-name="Mask Group 78" transform="translate(-23 -200)" clip-path="url(#clip-path)">
    <path id="Path_5633" data-name="Path 5633" d="M13.778,15.444h4.444L16.973,14.2a1.806,1.806,0,0,1-.529-1.277V10.111a5.335,5.335,0,0,0-3.556-5.03v-.3a1.778,1.778,0,1,0-3.556,0v.3a5.337,5.337,0,0,0-3.556,5.03v2.808A1.806,1.806,0,0,1,5.249,14.2L4,15.444H8.444m5.333,0v.889a2.667,2.667,0,0,1-5.333,0v-.889m5.333,0H8.444" transform="translate(21.5 198.5)" fill="none" stroke="#727272" stroke-linecap="round" stroke-linejoin="round" stroke-width="1.2"/>
  </g>
</svg>
