<svg xmlns="http://www.w3.org/2000/svg" xmlns:xlink="http://www.w3.org/1999/xlink" width="24" height="24" viewBox="0 0 24 24">
  <defs>
    <clipPath id="clip-path">
      <rect id="Rectangle_4188" data-name="Rectangle 4188" width="20" height="16.828" fill="#1a202c"/>
    </clipPath>
  </defs>
  <g id="Group_4005" data-name="Group 4005" transform="translate(-1695 41)">
    <rect id="Rectangle_4189" data-name="Rectangle 4189" width="24" height="24" transform="translate(1695 -41)" fill="none"/>
    <g id="Group_4004" data-name="Group 4004" transform="translate(1697 -37)">
      <g id="Group_4003" data-name="Group 4003" clip-path="url(#clip-path)">
        <path id="Path_5674" data-name="Path 5674" d="M3.2,19.214a6.875,6.875,0,0,0,12.435,2.913.838.838,0,0,1,.857-.449.766.766,0,0,1,.487,1.211,8.15,8.15,0,0,1-2.575,2.479A8.409,8.409,0,0,1,1.767,19.885c-.015-.07-.032-.14-.052-.226a1.268,1.268,0,0,0-.312.353A.777.777,0,0,1,.3,20.18a.76.76,0,0,1-.108-1.109Q.93,18.1,1.682,17.13a.706.706,0,0,1,.913-.25,1.46,1.46,0,0,1,.375.211l1.809,1.39a.751.751,0,0,1,.319.566.728.728,0,0,1-.375.726.718.718,0,0,1-.815-.03c-.222-.154-.433-.323-.705-.528" transform="translate(0 -9.788)" fill="#1a202c"/>
        <path id="Path_5675" data-name="Path 5675" d="M22.29,6.991c.134-.17.233-.3.341-.433a.767.767,0,0,1,1.056-.131.742.742,0,0,1,.166,1.047c-.52.7-1.057,1.389-1.6,2.075a.659.659,0,0,1-.777.216,1.37,1.37,0,0,1-.425-.218q-.935-.715-1.866-1.435a.768.768,0,0,1,.312-1.36.764.764,0,0,1,.652.165l.624.475a6.712,6.712,0,0,0-.622-2A6.868,6.868,0,0,0,8.365,4.479a.843.843,0,0,1-.875.458.767.767,0,0,1-.472-1.218A8.207,8.207,0,0,1,9.781,1.132,8.413,8.413,0,0,1,22.226,6.719c.016.076.036.152.064.273" transform="translate(-3.999 0)" fill="#1a202c"/>
      </g>
    </g>
  </g>
</svg>
