<svg xmlns="http://www.w3.org/2000/svg" xmlns:xlink="http://www.w3.org/1999/xlink" width="19" height="19" viewBox="0 0 19 19">
  <defs>
    <clipPath id="clip-path">
      <rect id="Rectangle_5251" data-name="Rectangle 5251" width="19" height="19" transform="translate(22 297)" fill="none"/>
    </clipPath>
  </defs>
  <g id="Mask_Group_80" data-name="Mask Group 80" transform="translate(-22 -297)" clip-path="url(#clip-path)">
    <g id="Group_3447" data-name="Group 3447" transform="translate(23 299)">
      <path id="Path_6458" data-name="Path 6458" d="M.6,0A.6.6,0,0,1,.824.043l16,6.44a.6.6,0,0,1,0,1.111l-16,6.6a.6.6,0,0,1-.765-.824L3.237,7.043.066.874A.6.6,0,0,1,.6,0ZM15.01,7.047,1.87,1.758,4.444,6.766a.6.6,0,0,1,0,.543l-2.59,5.164Z" fill="#696969"/>
      <path id="Line_247" data-name="Line 247" d="M4.09.6H0A.6.6,0,0,1-.6,0,.6.6,0,0,1,0-.6H4.09a.6.6,0,0,1,.6.6A.6.6,0,0,1,4.09.6Z" transform="translate(3.87 7.04)" fill="#696969"/>
    </g>
  </g>
</svg>
