<svg xmlns="http://www.w3.org/2000/svg" width="190" height="27.669" viewBox="0 0 190 27.669">
  <g id="Group_3993" data-name="Group 3993" transform="translate(-434 131)">
    <path id="Path_5649" data-name="Path 5649" d="M37.359,32.735a6.528,6.528,0,0,0,.72-3.185L35.4,27.592a.9.9,0,0,0-1.262.2l-5.819,7.97a4.856,4.856,0,0,0-.936,2.87v5.009a.906.906,0,0,0,1.636.535l8.351-11.434h0Z" transform="translate(417.384 -147.874)" fill="#eb1e29"/>
    <path id="Path_5650" data-name="Path 5650" d="M29.752,23.71l2.316-3.189a2.256,2.256,0,0,1,1.824-.932h.122a5.561,5.561,0,0,1,4.663,2.776,5.461,5.461,0,0,1,.456,4.573A1.523,1.523,0,0,0,37.8,25.181l-7.325-.035A.9.9,0,0,1,29.752,23.71Z" transform="translate(416.05 -142.975)" fill="#f79421"/>
    <path id="Path_5651" data-name="Path 5651" d="M.743,11.806a6.468,6.468,0,0,0-.716,3.185l2.682,1.958a.9.9,0,0,0,1.262-.2L9.79,8.782a4.856,4.856,0,0,0,.936-2.87V.9A.906.906,0,0,0,9.09.368L.743,11.806Z" transform="translate(433.983 -130.998)" fill="#eb1e29"/>
    <path id="Path_5652" data-name="Path 5652" d="M9.671,35.918,7.355,39.107a2.256,2.256,0,0,1-1.824.932H5.409A5.561,5.561,0,0,1,.746,37.263,5.461,5.461,0,0,1,.289,32.69a1.523,1.523,0,0,0,1.329,1.758l7.325.035A.9.9,0,0,1,9.671,35.918Z" transform="translate(433.996 -150.984)" fill="#f79421"/>
    <rect id="Rectangle_3986" data-name="Rectangle 3986" width="3.432" height="14.932" rx="1.716" transform="translate(550.941 -124.677)" fill="#e9212b"/>
    <path id="Path_5653" data-name="Path 5653" d="M86.968,24.569a4.644,4.644,0,0,0-3.039-2.582,32.887,32.887,0,0,0-3.767-.163,1.177,1.177,0,0,1-1-1.033,1.261,1.261,0,0,1,.625-1.242.738.738,0,0,1,.338-.081H84.4a.593.593,0,0,0,.6-.588V16.658a.593.593,0,0,0-.6-.588H79.9a5.019,5.019,0,0,0-2.611,1.122,7.127,7.127,0,0,0-1.117,1.358,5.146,5.146,0,0,0-.256,3.588c.016.054.035.1.055.155a4.79,4.79,0,0,0,3.771,2.914h3.173a1.221,1.221,0,0,1-.315,2.415H76.282a.585.585,0,0,0-.535.321.608.608,0,0,0-.067.221V30.4a.593.593,0,0,0,.6.588h7.1a1.435,1.435,0,0,0,.381-.05A5.283,5.283,0,0,0,85.891,29.8a5.919,5.919,0,0,0,1.282-2.016,4.435,4.435,0,0,0,.189-1.455,4.78,4.78,0,0,0-.4-1.769Z" transform="translate(387.805 -140.751)" fill="#e9212b"/>
    <path id="Path_5654" data-name="Path 5654" d="M118.784,16.08h-2.257a.593.593,0,0,0-.6.588v4.563a.593.593,0,0,1-.6.588H111.75a.593.593,0,0,1-.6-.588V16.668a.593.593,0,0,0-.6-.588H108.3a.593.593,0,0,0-.6.588V30.412a.593.593,0,0,0,.6.588h2.257a.593.593,0,0,0,.6-.588V25.775a.593.593,0,0,1,.6-.588h3.582a.593.593,0,0,1,.6.588v4.637a.593.593,0,0,0,.6.588h2.257a.593.593,0,0,0,.6-.588V16.672a.593.593,0,0,0-.6-.588Z" transform="translate(368.261 -140.757)" fill="#e9212b"/>
    <path id="Path_5655" data-name="Path 5655" d="M151.54,18.886V16.668a.593.593,0,0,0-.6-.588h-7.915a3.253,3.253,0,0,0-3.228,3.228v8.464A3.25,3.25,0,0,0,143,31h0l7.942,0a.593.593,0,0,0,.6-.588V28.194a.593.593,0,0,0-.6-.588h-7.1a.593.593,0,0,1-.6-.588V25.76a.593.593,0,0,1,.6-.588h7.1a.593.593,0,0,0,.6-.588V22.365a.593.593,0,0,0-.6-.588h-7.1a.593.593,0,0,1-.6-.588v-1.13a.593.593,0,0,1,.6-.588h7.1a.593.593,0,0,0,.6-.588Z" transform="translate(348.668 -140.757)" fill="#e9212b"/>
    <path id="Path_5656" data-name="Path 5656" d="M183.68,18.886V16.668a.593.593,0,0,0-.6-.588h-7.915a3.253,3.253,0,0,0-3.228,3.228v8.464a3.25,3.25,0,0,0,3.2,3.224h0l7.942,0a.593.593,0,0,0,.6-.588V28.194a.593.593,0,0,0-.6-.588h-7.1a.593.593,0,0,1-.6-.588V25.76a.593.593,0,0,1,.6-.588h7.1a.593.593,0,0,0,.6-.588V22.365a.593.593,0,0,0-.6-.588h-7.1a.593.593,0,0,1-.6-.588v-1.13a.593.593,0,0,1,.6-.588h7.1a.593.593,0,0,0,.6-.588Z" transform="translate(329.051 -140.757)" fill="#eb2027"/>
    <path id="Path_5657" data-name="Path 5657" d="M243.454,16.08h-6.676a.593.593,0,0,0-.6.588V30.424a.593.593,0,0,0,.6.588h6.971a4.659,4.659,0,0,0,3.991-3.568,2.586,2.586,0,0,0,.059-.55v-6.7a2.173,2.173,0,0,0-.059-.53,4.61,4.61,0,0,0-4.29-3.58Zm.987,10.384a1.251,1.251,0,0,1-1.262,1.242h-2.925a.593.593,0,0,1-.6-.588V20.105a.593.593,0,0,1,.6-.588h2.925a1.255,1.255,0,0,1,1.266,1.246v5.7Z" transform="translate(289.841 -140.757)" fill="#eb2027"/>
    <path id="Path_5658" data-name="Path 5658" d="M279.691,27.787V26.514a4.633,4.633,0,0,0-1.022-2.965,4.8,4.8,0,0,0,1.018-2.833c0-.1,0-.194-.008-.29a4.63,4.63,0,0,0-3.645-4.308,2.517,2.517,0,0,0-.637-.077h-6.79a.593.593,0,0,0-.6.588V30.4a.593.593,0,0,0,.6.588h2.214a.593.593,0,0,0,.6-.588V25.368a.218.218,0,0,1,.161-.17h3.574c.928.1,1.066,1.122,1.066,1.122v1.459h0v2.651a.593.593,0,0,0,.6.588h2.28a.593.593,0,0,0,.6-.588V27.779h0Zm-3.476-7.041a1.116,1.116,0,0,1-1.125,1.107h-3.055a.593.593,0,0,1-.6-.588V20.073a.593.593,0,0,1,.6-.588h3.055a1.116,1.116,0,0,1,1.125,1.107Z" transform="translate(270.412 -140.732)" fill="#eb2027"/>
    <path id="Path_5659" data-name="Path 5659" d="M321.73,16.107,319.5,16.08a.81.81,0,0,0-.747.584l-2.135,8.249-2.135-8.249a.809.809,0,0,0-.747-.584l-2.233.027a.446.446,0,0,0-.44.6l3.578,13.826a.809.809,0,0,0,.747.584l1.231-.015,1.231.015a.81.81,0,0,0,.747-.584L322.17,16.7a.45.45,0,0,0-.44-.6Z" transform="translate(244.152 -140.757)" fill="#e9212b"/>
    <path id="Path_5660" data-name="Path 5660" d="M353.43,18.886V16.668a.593.593,0,0,0-.6-.588h-7.915a3.253,3.253,0,0,0-3.228,3.228v8.464a3.25,3.25,0,0,0,3.2,3.224h0l7.942,0a.593.593,0,0,0,.6-.588V28.194a.593.593,0,0,0-.6-.588h-7.1a.593.593,0,0,1-.6-.588V25.76a.593.593,0,0,1,.6-.588h7.1a.593.593,0,0,0,.6-.588V22.365a.593.593,0,0,0-.6-.588h-7.1a.593.593,0,0,1-.6-.588v-1.13a.593.593,0,0,1,.6-.588h7.1a.593.593,0,0,0,.6-.588Z" transform="translate(225.439 -140.757)" fill="#e9212b"/>
    <path id="Path_5661" data-name="Path 5661" d="M215.831,27.787V26.514a4.633,4.633,0,0,0-1.022-2.965,4.8,4.8,0,0,0,1.018-2.833c0-.1,0-.194-.008-.29a4.63,4.63,0,0,0-3.645-4.308,2.517,2.517,0,0,0-.637-.077h-6.79a.593.593,0,0,0-.6.588V30.4a.593.593,0,0,0,.6.588h2.214a.593.593,0,0,0,.6-.588V25.368a.218.218,0,0,1,.161-.17h3.574c.928.1,1.066,1.122,1.066,1.122v1.459h0v2.651a.593.593,0,0,0,.6.588h2.28a.593.593,0,0,0,.6-.588V27.779h0Zm-3.476-7.041a1.116,1.116,0,0,1-1.125,1.107h-3.055a.593.593,0,0,1-.6-.588V20.073a.593.593,0,0,1,.6-.588h3.055a1.116,1.116,0,0,1,1.125,1.107Z" transform="translate(309.391 -140.732)" fill="#eb2027"/>
    <path id="Path_5662" data-name="Path 5662" d="M380.354,30.47a1.994,1.994,0,0,1-1.459-.507,1.957,1.957,0,0,1-.515-1.455V17.363a1.951,1.951,0,0,1,.515-1.455,2.025,2.025,0,0,1,1.478-.507h5.273a5.667,5.667,0,0,1,3.979,1.3,4.636,4.636,0,0,1,1.4,3.577,4.63,4.63,0,0,1-1.4,3.577,5.635,5.635,0,0,1-3.979,1.3h-3.322V28.5a1.769,1.769,0,0,1-1.974,1.963Zm1.974-8.3h2.638q2.318,0,2.316-1.9t-2.316-1.9h-2.638Z" transform="translate(203.038 -140.344)" fill="#f79421"/>
    <path id="Path_5663" data-name="Path 5663" d="M415.354,30.47a1.994,1.994,0,0,1-1.459-.507,1.957,1.957,0,0,1-.515-1.455V17.363a1.951,1.951,0,0,1,.515-1.455,2.025,2.025,0,0,1,1.478-.507h5.273a5.837,5.837,0,0,1,3.979,1.235,4.331,4.331,0,0,1,1.4,3.43,4.555,4.555,0,0,1-.845,2.8,4.428,4.428,0,0,1-2.453,1.572,3.132,3.132,0,0,1,1.931,1.626l1.073,1.9a2.246,2.246,0,0,1,.311,1.2,1.31,1.31,0,0,1-.46.941,1.907,1.907,0,0,1-1.266.368,2.513,2.513,0,0,1-1.36-.329,2.8,2.8,0,0,1-.932-1.065l-1.95-3.526a1.441,1.441,0,0,0-.653-.643,2.188,2.188,0,0,0-.912-.178h-1.18v3.778a1.769,1.769,0,0,1-1.974,1.963Zm1.974-8.485h2.615q2.335,0,2.335-1.815c0-1.212-.779-1.792-2.335-1.792h-2.615Z" transform="translate(181.525 -140.344)" fill="#f79421"/>
    <path id="Path_5664" data-name="Path 5664" d="M456.021,30.149a8.134,8.134,0,0,1-4.018-.96,6.786,6.786,0,0,1-2.689-2.691,8.172,8.172,0,0,1-.963-4.035,8.222,8.222,0,0,1,.955-4.042,6.713,6.713,0,0,1,2.689-2.672,9.01,9.01,0,0,1,8.048,0,6.762,6.762,0,0,1,2.689,2.672,8.108,8.108,0,0,1,.963,4.042,8.151,8.151,0,0,1-.963,4.035,6.786,6.786,0,0,1-2.689,2.691,8.144,8.144,0,0,1-4.018.96Zm0-3.253a3.2,3.2,0,0,0,2.626-1.173,5.028,5.028,0,0,0,.955-3.26,5.034,5.034,0,0,0-.944-3.253,3.577,3.577,0,0,0-5.277,0,5.027,5.027,0,0,0-.944,3.253,5.058,5.058,0,0,0,.944,3.26A3.2,3.2,0,0,0,456.021,26.9Z" transform="translate(160.304 -139.98)" fill="#f79421"/>
    <path id="Path_5665" data-name="Path 5665" d="M419.9,65.287H378.51l1.384-1.887H421.28Z" transform="translate(202.684 -169.708)" fill="#f79421"/>
  </g>
</svg>
