<svg xmlns="http://www.w3.org/2000/svg" xmlns:xlink="http://www.w3.org/1999/xlink" width="19" height="19" viewBox="0 0 19 19">
  <defs>
    <clipPath id="clip-path">
      <rect id="Rectangle_5250" data-name="Rectangle 5250" width="19" height="19" transform="translate(23 249)" fill="none"/>
    </clipPath>
  </defs>
  <g id="Mask_Group_79" data-name="Mask Group 79" transform="translate(-23 -249)" clip-path="url(#clip-path)">
    <g id="Group_3446" data-name="Group 3446" transform="translate(24.85 249.85)">
      <path id="Path_6456" data-name="Path 6456" d="M5.911,17.3H2.673A2.526,2.526,0,0,1,.15,14.774V2.674A2.526,2.526,0,0,1,2.673.15h8.349a2.526,2.526,0,0,1,2.523,2.524V9.3a.6.6,0,1,1-1.2,0V2.674A1.325,1.325,0,0,0,11.022,1.35H2.673A1.325,1.325,0,0,0,1.35,2.674v12.1A1.325,1.325,0,0,0,2.673,16.1H5.911a.6.6,0,0,1,0,1.2Z" transform="translate(0)" fill="#696969"/>
      <path id="Line_244" data-name="Line 244" d="M7.48.6H0A.6.6,0,0,1-.6,0,.6.6,0,0,1,0-.6H7.48a.6.6,0,0,1,.6.6A.6.6,0,0,1,7.48.6Z" transform="translate(3.183 4.677)" fill="#696969"/>
      <path id="Line_245" data-name="Line 245" d="M7.48.6H0A.6.6,0,0,1-.6,0,.6.6,0,0,1,0-.6H7.48a.6.6,0,0,1,.6.6A.6.6,0,0,1,7.48.6Z" transform="translate(3.183 7.428)" fill="#696969"/>
      <path id="Line_246" data-name="Line 246" d="M4.1.6H0A.6.6,0,0,1-.6,0,.6.6,0,0,1,0-.6H4.1a.6.6,0,0,1,.6.6A.6.6,0,0,1,4.1.6Z" transform="translate(3.189 10.189)" fill="#696969"/>
      <path id="Path_6457" data-name="Path 6457" d="M10.991,17.4c-1.533,0-3.018-1.023-4.414-3.041a.6.6,0,0,1-.029-.636c.077-.137,1.913-3.346,4.515-3.346,1.557,0,2.981,1.126,4.23,3.346a.6.6,0,0,1,.005.579C15.23,14.431,13.6,17.4,10.991,17.4Zm-3.2-3.408c1.082,1.465,2.158,2.208,3.2,2.208,1.5,0,2.662-1.543,3.082-2.189-.968-1.615-1.98-2.433-3.01-2.433C9.668,11.58,8.372,13.11,7.789,13.995Z" transform="translate(-0.046 -0.052)" fill="#696969"/>
      <path id="Ellipse_245" data-name="Ellipse 245" d="M.61-.6A1.21,1.21,0,1,1-.6.61,1.211,1.211,0,0,1,.61-.6Z" transform="translate(10.326 13.398)" fill="#696969"/>
    </g>
  </g>
</svg>
